<svg xmlns="http://www.w3.org/2000/svg" xmlns:xlink="http://www.w3.org/1999/xlink" width="40.069" height="40.068" viewBox="0 0 40.069 40.068"><defs><style>.a{fill:none;}.b{clip-path:url(#a);}.c{fill:url(#b);}.d{fill:#0f2859;}.e{fill:#f2eeea;}.f{fill:#dc0f10;}.g{fill:#212d51;}</style><clipPath id="a"><path class="a" d="M3287.391,1708.616a20.048,20.048,0,1,0,4.829.592,20.035,20.035,0,0,0-4.829-.592h0" transform="translate(-3267.374 -1708.616)"/></clipPath><radialGradient id="b" cx="-7.444" cy="5.452" r="0.002" gradientTransform="translate(0.023) scale(0.953 1)" gradientUnits="objectBoundingBox"><stop offset="0" stop-color="#fff"/><stop offset="0.781" stop-color="#fff"/><stop offset="0.818" stop-color="#f9f8f7"/><stop offset="0.873" stop-color="#e9e5e3"/><stop offset="0.939" stop-color="#cec7c1"/><stop offset="1" stop-color="#b2a79d"/></radialGradient></defs><g transform="translate(0 0)"><g class="b" transform="translate(0 0)"><rect class="c" width="44.201" height="42.134" transform="translate(-2.067 0)"/></g></g><path class="d" d="M3267.966,1723.837a20.029,20.029,0,1,1,14.63,24.254,20.026,20.026,0,0,1-14.63-24.254" transform="translate(-3267.374 -1708.615)"/><g transform="translate(0 0.001)"><path class="e" d="M3301.621,1714.531l-8.054,5.369v-10.307q-.66-.212-1.342-.382a19.934,19.934,0,0,0-11.019.4V1719.9l-8.023-5.348a19.891,19.891,0,0,0-4.344,6.6l2.125,1.416h-2.633q-.2.625-.36,1.269a19.928,19.928,0,0,0,.421,11.092h2.624l-2.1,1.4a20.127,20.127,0,0,0,4.409,6.557l7.883-5.254V1747.7q.684.223,1.395.4a19.934,19.934,0,0,0,10.967-.38v-10.077l7.914,5.275a19.9,19.9,0,0,0,4.42-6.55l-2.146-1.43h2.677q.237-.72.423-1.469a19.941,19.941,0,0,0-.357-10.893h-2.689l2.166-1.444a20.123,20.123,0,0,0-4.354-6.6" transform="translate(-3267.378 -1708.62)"/></g><g transform="translate(0.001 0.001)"><path class="f" d="M3278.132,1722.575l-7.437-4.947a19.914,19.914,0,0,0-1.337,2.364l3.883,2.583Zm25.983-4.986a20.133,20.133,0,0,0-1.65-2.158l-8.891,5.913v1.231h3.045Zm-33.365,22.17a20.072,20.072,0,0,0,1.654,2.153l8.81-5.859v-1.117H3278Zm36.4-14.61H3291v-16.2a19.923,19.923,0,0,0-7.213,0v16.2H3267.7a19.908,19.908,0,0,0,.031,7.21h16.056v15.993a19.917,19.917,0,0,0,7.213.016v-16.009h16.1a19.929,19.929,0,0,0,.041-7.21m-10.354,9.787,7.289,4.847a19.822,19.822,0,0,0,1.35-2.356l-3.747-2.491Z" transform="translate(-3267.388 -1708.623)"/></g><g transform="translate(26.188 3.059)"><path class="g" d="M3525.5,1738.767h0v1.3a2.316,2.316,0,0,0,.12-.7,1.467,1.467,0,0,0-.12-.6" transform="translate(-3525.505 -1738.767)"/></g></svg>